<svg width="278" height="74" viewBox="0 0 278 74" fill="none" xmlns="http://www.w3.org/2000/svg">
<g clip-path="url(#clip0_296_15729)">
<path d="M227.848 48.2261H227.854C231.391 48.2261 234.259 45.5198 234.259 42.1815V42.1757C234.259 38.8374 231.391 36.1312 227.854 36.1312H227.848C224.311 36.1312 221.443 38.8374 221.443 42.1757V42.1815C221.443 45.5198 224.311 48.2261 227.848 48.2261Z" fill="#22B573"/>
<path d="M44.5148 20.0164C45.988 17.2297 47.9976 15.0888 50.5435 13.5879C53.0832 12.0869 55.9249 11.3364 59.0564 11.3364C61.7317 11.3364 64.0803 11.8484 66.1022 12.8781C68.1241 13.9078 69.6775 15.2575 70.7686 16.9272V11.8484H82.413V47.7084H70.7686V42.6296C69.6344 44.2993 68.0563 45.649 66.0344 46.6787C64.0125 47.7084 61.6639 48.2204 58.9886 48.2204C55.9003 48.2204 53.0832 47.4583 50.5435 45.9399C48.0038 44.4215 45.9942 42.2573 44.5148 39.4474C43.0415 36.6432 42.3018 33.397 42.3018 29.7086C42.3018 26.0202 43.0415 22.7914 44.5148 20.0047V20.0164ZM68.346 23.2917C66.7371 21.7093 64.7707 20.9123 62.4529 20.9123C60.1351 20.9123 58.1749 21.6919 56.5598 23.2568C54.9509 24.8218 54.1434 26.9743 54.1434 29.7144C54.1434 32.4545 54.9509 34.6303 56.5598 36.236C58.1687 37.8417 60.1351 38.6445 62.4529 38.6445C64.7707 38.6445 66.731 37.8533 68.346 36.2651C69.9549 34.6827 70.7624 32.5185 70.7624 29.7726C70.7624 27.0267 69.9549 24.8683 68.346 23.2801V23.2917Z" fill="#F1F2ED"/>
<path d="M86.8692 20.0164C88.4781 17.2297 90.7281 15.0888 93.613 13.5879C96.4979 12.0869 99.7958 11.3364 103.519 11.3364C108.284 11.3364 112.272 12.5174 115.472 14.8677C118.671 17.2239 120.773 20.5458 121.772 24.8276H109.381C108.34 22.0875 106.318 20.7145 103.322 20.7145C101.189 20.7145 99.4876 21.4999 98.2177 23.059C96.9479 24.624 96.313 26.8579 96.313 29.7726C96.313 32.6872 96.9479 34.9212 98.2177 36.4862C99.4876 38.0511 101.189 38.8307 103.322 38.8307C106.318 38.8307 108.34 37.4577 109.381 34.7176H121.772C120.773 38.918 118.659 42.2166 115.441 44.6134C112.217 47.0103 108.247 48.2146 103.525 48.2146C99.802 48.2146 96.4979 47.4641 93.6192 45.9631C90.7343 44.4622 88.4904 42.3213 86.8754 39.5346C85.2665 36.748 84.459 33.4959 84.459 29.7668C84.459 26.0377 85.2665 22.7856 86.8754 19.9989L86.8692 20.0164Z" fill="#F1F2ED"/>
<path d="M144.013 26.4448L161.532 47.7142H147.095L135.518 32.6755V47.7142H123.874V0.160645H135.518V26.4448H144.007H144.013Z" fill="#F1F2ED"/>
<path d="M197.488 32.4196H171.136C171.315 34.6478 172.079 36.3524 173.417 37.5275C174.754 38.7085 176.4 39.2961 178.354 39.2961C181.258 39.2961 183.28 38.1384 184.414 35.8288H196.804C196.169 38.1849 195.023 40.3084 193.364 42.1933C191.706 44.0782 189.629 45.5559 187.132 46.6264C184.636 47.6968 181.843 48.232 178.755 48.232C175.032 48.232 171.715 47.4815 168.812 45.9806C165.908 44.4796 163.64 42.3387 162 39.5521C160.367 36.7654 159.547 33.5133 159.547 29.7842C159.547 26.0551 160.354 22.803 161.963 20.0164C163.572 17.2297 165.834 15.0888 168.738 13.5879C171.641 12.0869 174.976 11.3364 178.749 11.3364C182.521 11.3364 185.696 12.0636 188.556 13.5239C191.416 14.9783 193.654 17.0552 195.263 19.7546C196.872 22.454 197.679 25.6013 197.679 29.2025C197.679 30.2322 197.612 31.3026 197.476 32.4138L197.488 32.4196ZM185.776 26.3169C185.776 24.432 185.098 22.931 183.736 21.8198C182.373 20.7029 180.672 20.1502 178.632 20.1502C176.591 20.1502 175.032 20.6854 173.694 21.7559C172.356 22.8263 171.524 24.3505 171.21 26.3169H185.782H185.776Z" fill="#F1F2ED"/>
<path d="M216.486 13.1748C218.527 12.0403 220.801 11.4702 223.298 11.4702V23.1055H220.099C217.195 23.1055 215.013 23.6931 213.565 24.8741C212.11 26.0551 211.389 28.1204 211.389 31.0757V47.7201H199.744V11.8542H211.389V17.8289C212.751 15.8567 214.452 14.3034 216.493 13.169L216.486 13.1748Z" fill="#F1F2ED"/>
<path d="M148.759 23.437H148.765C152.302 23.437 155.17 20.7308 155.17 17.3925V17.3866C155.17 14.0483 152.302 11.3421 148.765 11.3421H148.759C145.222 11.3421 142.354 14.0483 142.354 17.3866V17.3925C142.354 20.7308 145.222 23.437 148.759 23.437Z" fill="#7D69FF"/>
<path d="M28.8693 0.160645V18.3176H12.127V0.160645H0.716797V47.7142H12.127V28.6206H28.8693V47.7142H40.2794V0.160645H28.8693Z" fill="#F1F2ED"/>
<path d="M264.858 0.160645V28.5974C264.858 31.1222 264.18 33.0828 262.855 34.4208C261.529 35.7473 259.575 36.4221 257.048 36.4221C254.521 36.4221 252.597 35.7531 251.315 34.4325C250.021 33.0944 249.367 31.1339 249.367 28.6032V0.160645H236.515V28.5276C236.515 32.6406 237.415 36.1778 239.184 39.0517C240.959 41.9431 243.413 44.1363 246.476 45.5733C249.515 46.9986 253.004 47.72 256.845 47.72C260.685 47.72 264.217 46.987 267.349 45.5442C270.499 44.084 273.044 41.8965 274.912 39.0342C276.78 36.172 277.723 32.6406 277.723 28.5276V0.160645H264.864H264.858Z" fill="#F1F2ED"/>
<path d="M6.54208 70.8745H4.83456L7.84892 63.2126H0.716797V61.8804H9.56876V63.1486L6.53592 70.8803L6.54208 70.8745ZM2.51678 73.1608H0.901727V66.104H2.51678V73.1608Z" fill="#F1F2ED"/>
<path d="M12.8788 69.897C12.1452 69.0942 11.7754 67.9946 11.7754 66.5926V61.8745H13.3904V66.4704C13.3904 67.4885 13.6247 68.2913 14.087 68.8789C14.5493 69.4665 15.1904 69.7632 15.998 69.7632C16.8548 69.7632 17.5452 69.4432 18.0753 68.8091C18.5993 68.175 18.8644 67.3314 18.8644 66.2784C18.8644 65.4116 18.8459 64.7949 18.8089 64.4342C18.7719 64.0677 18.6548 63.7768 18.4575 63.5616C18.3096 63.3987 18.1308 63.2823 17.9151 63.2067C17.6993 63.1311 17.4342 63.0962 17.1137 63.0962C16.6144 63.0962 16.0843 63.1951 15.5356 63.3929V62.0781C16.2938 61.8686 16.9842 61.7639 17.613 61.7639C18.4452 61.7639 19.0863 61.9501 19.5424 62.3166C19.9 62.6075 20.1404 63.0205 20.276 63.5674C20.4116 64.1084 20.4794 64.9753 20.4794 66.1679C20.4794 67.1511 20.2883 68.0121 19.9123 68.7626C19.5301 69.5072 18.9938 70.0832 18.3034 70.4962C17.613 70.9093 16.8116 71.1129 15.9055 71.1129C14.6171 71.1129 13.6124 70.7115 12.8726 69.9086L12.8788 69.897Z" fill="#F1F2ED"/>
<path d="M25.3306 67.634H23.697V63.2126H22.5566V61.8804H25.3306V67.634Z" fill="#F1F2ED"/>
<path d="M30.6011 67.634H28.9675V63.2126H27.8271V61.8804H30.6011V67.634Z" fill="#F1F2ED"/>
<path d="M40.027 65.272C40.027 63.8991 39.3983 63.2068 38.1346 63.2068H33.5977V61.8745H38.449C39.4907 61.8745 40.2798 62.1654 40.8284 62.7413C41.3709 63.3173 41.6483 64.1492 41.6483 65.2371V70.8744H40.0332V65.272H40.027ZM35.2127 70.8744H33.5977V66.1098H35.2127V70.8744Z" fill="#F1F2ED"/>
<path d="M44.0338 70.8745V69.5422H49.1194V65.2779C49.1194 63.9049 48.4906 63.2126 47.2269 63.2126H44.1201V61.8804H47.5351C48.5892 61.8804 49.3844 62.1654 49.9207 62.7414C50.457 63.3115 50.7283 64.1493 50.7283 65.2488V69.548H52.2324V70.8803H44.0215L44.0338 70.8745Z" fill="#F1F2ED"/>
<path d="M65.1032 65.272C65.1032 63.8991 64.4745 63.2068 63.2108 63.2068H58.6738V61.8745H63.5252C64.5669 61.8745 65.356 62.1654 65.9046 62.7413C66.447 63.3173 66.7244 64.1492 66.7244 65.2371V70.8744H65.1094V65.272H65.1032ZM60.2889 70.8744H58.6738V66.1098H60.2889V70.8744Z" fill="#F1F2ED"/>
<path d="M74.159 65.272C74.159 63.8991 73.5302 63.2068 72.2665 63.2068H68.833V61.8745H72.5809C73.6104 61.8745 74.3932 62.1654 74.9419 62.7413C75.4843 63.3173 75.7617 64.1492 75.7617 65.2371V70.8744H74.1651V65.272H74.159Z" fill="#F1F2ED"/>
<path d="M80.9702 67.634H79.3367V63.2126H78.1963V61.8804H80.9702V67.634Z" fill="#F1F2ED"/>
<path d="M86.2466 67.634H84.6131V63.2126H83.4727V61.8804H86.2466V67.634Z" fill="#F1F2ED"/>
<path d="M93.9217 65.272C93.9217 63.8991 93.2929 63.2068 92.0292 63.2068H88.5957V61.8745H92.3436C93.3731 61.8745 94.1559 62.1654 94.7046 62.7413C95.247 63.3173 95.5244 64.1492 95.5244 65.2371V70.8744H93.9278V65.272H93.9217Z" fill="#F1F2ED"/>
<path d="M104.098 70.8745H102.391L105.405 63.2126H98.2793V61.8804H107.131V63.1486L104.098 70.8803V70.8745ZM100.073 73.1608H98.4581V66.104H100.073V73.1608Z" fill="#F1F2ED"/>
<path d="M112.864 70.8744H111.157L114.516 63.2125H109.098V58.6689H110.694V61.8745H116.261V63.1078L112.864 70.8744Z" fill="#F1F2ED"/>
<path d="M126.586 65.4815C126.586 64.6728 126.432 64.091 126.118 63.7362C125.803 63.3813 125.292 63.2068 124.583 63.2068H121.587V61.8745H124.983C126.038 61.8745 126.833 62.1479 127.381 62.689C127.924 63.23 128.201 64.027 128.201 65.08V73.1608H126.586V65.4815Z" fill="#F1F2ED"/>
<path d="M130.494 70.8221V69.5538C130.852 69.6236 131.129 69.6585 131.339 69.6585C131.814 69.6585 132.165 69.5422 132.375 69.3095C132.59 69.0768 132.695 68.7103 132.695 68.1983V63.2068H130.488V61.8745H137.398C138.44 61.8745 139.229 62.1596 139.778 62.7355C140.32 63.3057 140.598 64.1376 140.598 65.2255V70.8744H138.983V65.272C138.983 63.8991 138.36 63.2068 137.109 63.2068H134.298V68.3379C134.298 70.0949 133.404 70.9733 131.616 70.9733C131.185 70.9733 130.815 70.921 130.494 70.8163V70.8221Z" fill="#F1F2ED"/>
<path d="M145.856 70.8745H144.222V63.2126H143.082V61.8804H145.856V70.8803V70.8745Z" fill="#F1F2ED"/>
<path d="M148.334 70.8745C148.433 70.2054 148.531 69.6179 148.63 69.1234C148.864 68.0936 149.178 67.3373 149.585 66.8545C149.992 66.3716 150.602 66.0109 151.422 65.7782L148.371 61.8804H150.282L153.37 65.8306C153.907 65.6677 154.313 65.4466 154.585 65.1615C154.856 64.8765 155.022 64.6089 155.096 64.3471C155.17 64.0853 155.244 63.7246 155.318 63.265L155.522 61.8804H157.192C157.143 62.3051 157.069 62.7588 156.97 63.2301C156.81 63.9689 156.613 64.5623 156.385 65.0161C156.157 65.4699 155.854 65.8247 155.485 66.0807C155.115 66.3425 154.64 66.5461 154.054 66.6974L157.322 70.8745H155.429L152.088 66.6101C151.428 66.8312 150.985 67.1454 150.757 67.5526C150.528 67.9656 150.387 68.3496 150.325 68.7045C150.263 69.0652 150.226 69.2863 150.214 69.3793C150.165 69.6702 150.085 70.1647 149.974 70.8687H148.34L148.334 70.8745Z" fill="#F1F2ED"/>
<path d="M163.782 70.8744V61.8745H168.886C169.915 61.8745 170.704 62.1654 171.253 62.7413C171.801 63.3173 172.079 64.1492 172.079 65.2371V70.8744H163.775H163.782ZM165.397 69.5422H170.47V65.2778C170.47 63.9049 169.841 63.2126 168.577 63.2126H165.397V69.5422Z" fill="#F1F2ED"/>
<path d="M177.3 67.634H175.667V63.2126H174.526V61.8804H177.3V67.634Z" fill="#F1F2ED"/>
<path d="M185.936 70.8745H184.229L187.243 63.2126H180.117V61.8804H188.969V63.1486L185.936 70.8803V70.8745ZM181.911 73.1608H180.296V66.104H181.911V73.1608Z" fill="#F1F2ED"/>
<path d="M193.758 67.634H192.125V63.2126H190.984V61.8804H193.758V67.634Z" fill="#F1F2ED"/>
<path d="M196.113 70.9792V69.6469H197.451C198.332 69.6469 198.776 69.2223 198.776 68.3612V63.2126H196.428V61.8804H200.379V68.3787C200.379 69.2106 200.145 69.8506 199.682 70.3043C199.214 70.7523 198.548 70.9792 197.679 70.9792H196.119H196.113Z" fill="#F1F2ED"/>
<path d="M204.947 70.8745L204.706 70.1473C204.349 69.1292 204.077 68.2624 203.88 67.541C203.683 66.8196 203.584 66.1448 203.584 65.5223C203.584 65.0278 203.652 64.5798 203.794 64.19C203.936 63.7944 204.133 63.4745 204.392 63.2185H202.573V61.8862H207.622V63.2185H206.333C205.902 63.2185 205.563 63.3756 205.304 63.6955C205.045 64.0155 204.916 64.446 204.916 64.987C204.916 65.6212 205.07 66.4007 205.384 67.3257C205.699 68.2508 206.155 69.4376 206.753 70.8803H204.934L204.947 70.8745Z" fill="#F1F2ED"/>
<path d="M213.799 71.0139V69.6817C214.021 69.7515 214.36 69.7864 214.828 69.7864C215.771 69.7864 216.48 69.5013 216.961 68.9254C217.442 68.3494 217.676 67.5059 217.676 66.3831C217.676 65.2603 217.448 64.4516 216.998 63.8524C216.542 63.2532 215.913 62.9507 215.106 62.9507C214.397 62.9507 213.805 63.195 213.343 63.6779C212.874 64.1607 212.529 64.9054 212.295 65.8944C212.11 66.7263 211.937 67.8433 211.783 69.2395L211.598 71.0081H210.02C210.057 70.2925 210.174 69.2454 210.378 67.8724C210.581 66.4994 210.754 65.5453 210.902 65.0101L209.12 61.8744H210.883L211.802 63.4161C212.196 62.8401 212.677 62.398 213.25 62.1013C213.824 61.7988 214.489 61.6533 215.235 61.6533C216.499 61.6533 217.479 62.0606 218.194 62.8692C218.903 63.6779 219.26 64.789 219.26 66.1969C219.26 67.7328 218.872 68.9428 218.095 69.8213C217.319 70.6998 216.24 71.1361 214.871 71.1361C214.489 71.1361 214.138 71.0954 213.805 71.0139H213.799Z" fill="#F1F2ED"/>
</g>
<defs>
<clipPath id="clip0_296_15729">
<rect width="277" height="73" fill="white" transform="translate(0.716797 0.160645)"/>
</clipPath>
</defs>
</svg>
