<svg width="92" height="92" viewBox="0 0 92 92" fill="none" xmlns="http://www.w3.org/2000/svg">
<path d="M46.0816 90.8681C71.0425 90.8681 91.2774 70.7938 91.2774 46.031C91.2774 21.2681 71.0425 1.19385 46.0816 1.19385C21.1206 1.19385 0.885742 21.2681 0.885742 46.031C0.885742 70.7938 21.1206 90.8681 46.0816 90.8681Z" fill="white" stroke="#131316" stroke-miterlimit="10"/>
<path d="M66.227 32.0984H26.3963C18.6642 32.0984 12.0236 38.0993 11.8921 45.77C11.7474 53.5842 18.0856 59.9634 25.9361 59.9634C30.8278 59.9634 35.1278 57.4848 37.6525 53.7147C39.2305 51.3534 41.9525 50.0098 44.806 50.0098H47.3702C50.25 50.0098 52.9589 51.4056 54.5632 53.7799C57.3509 57.9153 62.3215 60.4852 67.8313 59.8852C74.2484 59.1807 79.482 54.0017 80.1921 47.6355C81.1389 39.2212 74.5245 32.1114 66.2402 32.1114L66.227 32.0984Z" fill="#22B573" stroke="#131316" stroke-miterlimit="10"/>
<path d="M25.9365 39.4429V52.1883" stroke="#131316" stroke-miterlimit="10"/>
<path d="M19.5059 45.8223H32.3664" stroke="#131316" stroke-miterlimit="10"/>
<path d="M66.2273 42.7173C67.3312 42.7173 68.2261 41.8295 68.2261 40.7344C68.2261 39.6392 67.3312 38.7515 66.2273 38.7515C65.1234 38.7515 64.2285 39.6392 64.2285 40.7344C64.2285 41.8295 65.1234 42.7173 66.2273 42.7173Z" fill="#22B573" stroke="#131316" stroke-miterlimit="10"/>
<path d="M66.2273 51.9927C67.3312 51.9927 68.2261 51.1049 68.2261 50.0098C68.2261 48.9146 67.3312 48.0269 66.2273 48.0269C65.1234 48.0269 64.2285 48.9146 64.2285 50.0098C64.2285 51.1049 65.1234 51.9927 66.2273 51.9927Z" fill="#22B573" stroke="#131316" stroke-miterlimit="10"/>
<path d="M61.5593 47.3484C62.6632 47.3484 63.5581 46.4606 63.5581 45.3655C63.5581 44.2703 62.6632 43.3826 61.5593 43.3826C60.4554 43.3826 59.5605 44.2703 59.5605 45.3655C59.5605 46.4606 60.4554 47.3484 61.5593 47.3484Z" fill="#22B573" stroke="#131316" stroke-miterlimit="10"/>
<path d="M70.8953 47.3484C71.9991 47.3484 72.894 46.4606 72.894 45.3655C72.894 44.2703 71.9991 43.3826 70.8953 43.3826C69.7914 43.3826 68.8965 44.2703 68.8965 45.3655C68.8965 46.4606 69.7914 47.3484 70.8953 47.3484Z" fill="#22B573" stroke="#131316" stroke-miterlimit="10"/>
</svg>
