<svg width="160" height="57" viewBox="0 0 160 57" fill="none" xmlns="http://www.w3.org/2000/svg">
<path d="M14.6259 45.192C13.6659 45.192 12.8499 44.872 12.2099 44.248L11.4739 45H10.9459V32.936H12.2899V37.832C12.9139 37.096 13.7939 36.696 14.8179 36.696C16.9459 36.696 18.4019 38.424 18.4019 40.872C18.4019 43.432 16.8499 45.208 14.6259 45.192ZM12.2419 40.936C12.2419 42.776 13.2019 44.008 14.6259 44.008C16.0819 44.008 17.0099 42.824 17.0099 40.952C17.0099 39.112 16.0499 37.88 14.6259 37.88C13.1699 37.88 12.2419 39.064 12.2419 40.936ZM21.4476 48.68L22.8396 45.08L19.5116 36.904H20.9676L23.5276 43.32L25.8956 36.904H27.2556L22.7436 48.68H21.4476Z" fill="black"/>
<g clip-path="url(#clip0_504_6648)">
<path d="M132.995 27.738H132.999C134.914 27.738 136.467 26.1763 136.467 24.2498V24.2464C136.467 22.3199 134.914 20.7582 132.999 20.7582H132.995C131.08 20.7582 129.527 22.3199 129.527 24.2464V24.2498C129.527 26.1763 131.08 27.738 132.995 27.738Z" fill="#22B573"/>
<path d="M33.7169 11.4586C34.5147 9.85042 35.6029 8.61493 36.9816 7.74874C38.3569 6.88256 39.8957 6.44946 41.5915 6.44946C43.0402 6.44946 44.312 6.74491 45.4069 7.33915C46.5018 7.9334 47.343 8.71229 47.9338 9.67584V6.74491H54.2394V27.4394H47.9338V24.5085C47.3196 25.472 46.4651 26.2509 45.3702 26.8451C44.2753 27.4394 43.0035 27.7348 41.5547 27.7348C39.8824 27.7348 38.3569 27.295 36.9816 26.4188C35.6063 25.5425 34.5181 24.2936 33.7169 22.672C32.9191 21.0538 32.5186 19.1804 32.5186 17.0519C32.5186 14.9233 32.9191 13.06 33.7169 11.4519V11.4586ZM46.6219 13.3487C45.7507 12.4356 44.6859 11.9756 43.4307 11.9756C42.1756 11.9756 41.1141 12.4255 40.2395 13.3286C39.3683 14.2317 38.931 15.4739 38.931 17.0552C38.931 18.6365 39.3683 19.8921 40.2395 20.8188C41.1108 21.7454 42.1756 22.2087 43.4307 22.2087C44.6859 22.2087 45.7474 21.7521 46.6219 20.8356C47.4932 19.9224 47.9305 18.6734 47.9305 17.0888C47.9305 15.5041 47.4932 14.2586 46.6219 13.342V13.3487Z" fill="#131316"/>
<path d="M56.6528 11.4586C57.5241 9.85042 58.7425 8.61493 60.3047 7.74874C61.8669 6.88256 63.6528 6.44946 65.669 6.44946C68.2493 6.44946 70.4091 7.131 72.1415 8.48735C73.874 9.84707 75.0123 11.7641 75.5531 14.2351H68.8435C68.2794 12.6538 67.1845 11.8615 65.5622 11.8615C64.4072 11.8615 63.4859 12.3147 62.7983 13.2145C62.1106 14.1176 61.7668 15.4068 61.7668 17.0888C61.7668 18.7708 62.1106 20.06 62.7983 20.9631C63.4859 21.8662 64.4072 22.3161 65.5622 22.3161C67.1845 22.3161 68.2794 21.5238 68.8435 19.9425H75.5531C75.0123 22.3665 73.8673 24.2701 72.1248 25.6533C70.379 27.0365 68.2293 27.7315 65.6723 27.7315C63.6561 27.7315 61.8669 27.2984 60.308 26.4322C58.7458 25.566 57.5308 24.3305 56.6562 22.7224C55.7849 21.1142 55.3477 19.2375 55.3477 17.0854C55.3477 14.9334 55.7849 13.0567 56.6562 11.4485L56.6528 11.4586Z" fill="#131316"/>
<path d="M87.5969 15.1683L97.0837 27.4427H89.266L82.997 18.764V27.4427H76.6914V0H82.997V15.1683H87.5936H87.5969Z" fill="#131316"/>
<path d="M116.555 18.6164H102.284C102.381 19.9022 102.795 20.8859 103.519 21.5641C104.244 22.2456 105.135 22.5847 106.193 22.5847C107.766 22.5847 108.86 21.9166 109.475 20.5838H116.184C115.84 21.9435 115.219 23.1689 114.321 24.2567C113.424 25.3444 112.299 26.1972 110.947 26.8149C109.595 27.4327 108.083 27.7415 106.41 27.7415C104.394 27.7415 102.598 27.3085 101.026 26.4423C99.4537 25.5761 98.2253 24.3406 97.3373 22.7324C96.4528 21.1243 96.0088 19.2475 96.0088 17.0955C96.0088 14.9435 96.4461 13.0667 97.3173 11.4586C98.1886 9.85042 99.4136 8.61493 100.986 7.74874C102.558 6.88256 104.364 6.44946 106.407 6.44946C108.45 6.44946 110.169 6.86913 111.718 7.71181C113.267 8.55114 114.478 9.7497 115.35 11.3075C116.221 12.8653 116.658 14.6816 116.658 16.7598C116.658 17.354 116.621 17.9718 116.548 18.613L116.555 18.6164ZM110.212 15.0945C110.212 14.0068 109.845 13.1406 109.107 12.4993C108.37 11.8547 107.448 11.5358 106.343 11.5358C105.239 11.5358 104.394 11.8447 103.67 12.4624C102.945 13.0802 102.495 13.9598 102.324 15.0945H110.216H110.212Z" fill="#131316"/>
<path d="M126.843 7.5103C127.948 6.85563 129.179 6.52661 130.531 6.52661V13.2412H128.799C127.226 13.2412 126.045 13.5803 125.26 14.2619C124.473 14.9434 124.082 16.1352 124.082 17.8408V27.446H117.776V6.74819H124.082V10.1962C124.82 9.05803 125.741 8.16162 126.846 7.50695L126.843 7.5103Z" fill="#131316"/>
<path d="M90.1671 13.4326H90.1704C92.0859 13.4326 93.6387 11.8709 93.6387 9.94437V9.94101C93.6387 8.0145 92.0859 6.45276 90.1704 6.45276H90.1671C88.2516 6.45276 86.6988 8.0145 86.6988 9.94101V9.94437C86.6988 11.8709 88.2516 13.4326 90.1671 13.4326Z" fill="#7D69FF"/>
<path d="M25.245 0V10.4782H16.1788V0H10V27.4427H16.1788V16.424H25.245V27.4427H31.4238V0H25.245Z" fill="#131316"/>
<path d="M153.037 0V16.4106C153.037 17.8676 152.67 18.999 151.952 19.7712C151.234 20.5367 150.176 20.9261 148.808 20.9261C147.439 20.9261 146.398 20.54 145.703 19.7779C145.002 19.0058 144.648 17.8743 144.648 16.4139V0H137.688V16.3703C137.688 18.7439 138.176 20.7851 139.134 22.4436C140.095 24.1122 141.424 25.3779 143.083 26.2072C144.728 27.0297 146.618 27.446 148.697 27.446C150.777 27.446 152.69 27.023 154.386 26.1904C156.091 25.3477 157.47 24.0854 158.481 22.4336C159.493 20.7818 160.004 18.7439 160.004 16.3703V0H153.04H153.037Z" fill="#131316"/>
</g>
<path d="M95.1 36.24V36.2966H94.8357V36.964H94.7682V36.2966H94.5039V36.24H95.1Z" fill="#F1F2ED"/>
<path d="M95.393 36.24L95.6404 36.8735L95.8991 36.24H96.0004V36.964H95.9329V36.3361H95.9273L95.6742 36.964H95.6067L95.3592 36.3361V36.964H95.2861V36.24H95.393Z" fill="#F1F2ED"/>
<path d="M41.0151 34.0342V36.0195H37.6857V45.2336H35.3406V36.0195H32V34.0342H41.0151Z" fill="#131316"/>
<path d="M48.117 36.9978C48.5332 37.1732 48.8706 37.4447 49.1349 37.8123C49.3599 38.1234 49.5005 38.4402 49.5511 38.7682C49.6017 39.0963 49.6242 39.628 49.6242 40.369V45.2334H47.4252V40.1936C47.4252 39.7468 47.3521 39.3848 47.2003 39.1133C47.0035 38.7287 46.6379 38.5363 46.0924 38.5363C45.5469 38.5363 45.097 38.7287 44.8045 39.1133C44.5121 39.4979 44.3659 40.0409 44.3659 40.7536V45.239H42.2119V34H44.3659V38.0273C44.6752 37.5465 45.0351 37.2128 45.4456 37.0205C45.8562 36.8281 46.2836 36.7376 46.7335 36.7376C47.2397 36.7376 47.7008 36.8281 48.1114 37.0035" fill="#131316"/>
<path d="M55.424 36.7607C55.424 36.7607 55.514 36.7664 55.6096 36.7721V38.9893C55.4747 38.9724 55.3509 38.9667 55.2497 38.961C55.1428 38.961 55.0585 38.9554 54.991 38.9554C54.1249 38.9554 53.5457 39.2382 53.2476 39.8038C53.0789 40.1206 53.0001 40.6127 53.0001 41.2801V45.2395H50.835V36.9587H52.8877V38.4011C53.2195 37.8467 53.5119 37.4734 53.7537 37.2698C54.1587 36.9304 54.6817 36.7607 55.3228 36.7607C55.3622 36.7607 55.3959 36.7607 55.424 36.7607Z" fill="#131316"/>
<path d="M58.208 36.0194H56.8076V34.8089C56.8076 34.3734 57.1563 34.0227 57.5893 34.0227H58.9897V35.2331C58.9897 35.6687 58.641 36.0194 58.208 36.0194Z" fill="#22B573"/>
<path d="M58.9897 36.9524H56.8076V45.2332H58.9897V36.9524Z" fill="#131316"/>
<path d="M66.0808 36.9524H68.3922L65.4228 45.2332H63.1508L60.1982 36.9524H62.6165L64.3318 43.0612L66.0808 36.9524Z" fill="#131316"/>
<path d="M74.5451 37.1221C75.1188 37.3823 75.5912 37.7895 75.968 38.3495C76.3054 38.8416 76.5247 39.4129 76.626 40.0634C76.6822 40.4423 76.7047 40.991 76.6991 41.7093H70.704C70.7378 42.5408 71.0246 43.1234 71.5645 43.4571C71.8907 43.6664 72.29 43.7682 72.7511 43.7682C73.2404 43.7682 73.6397 43.6438 73.9434 43.3893C74.1121 43.2535 74.2583 43.0612 74.3877 42.818H76.5866C76.5304 43.3101 76.2604 43.8078 75.788 44.3169C75.0513 45.1201 74.0165 45.5273 72.6893 45.5273C71.5926 45.5273 70.6253 45.188 69.7873 44.5092C68.9494 43.8304 68.5332 42.7275 68.5332 41.1946C68.5332 39.7579 68.91 38.6606 69.6692 37.897C70.4228 37.1334 71.407 36.7488 72.6105 36.7488C73.3247 36.7488 73.9715 36.8789 74.5451 37.1391M71.3226 39.0113C71.019 39.328 70.8277 39.7523 70.749 40.2953H74.4551C74.4158 39.7183 74.2246 39.2828 73.8815 38.9887C73.5385 38.6889 73.111 38.5418 72.6049 38.5418C72.0537 38.5418 71.6263 38.7002 71.3226 39.0169" fill="#131316"/>
<path d="M77.9082 36.9866H81.7268C84.3813 36.9866 86.1978 38.6326 86.1978 41.11C86.1978 43.5875 84.3813 45.2334 81.7268 45.2334H77.9082V36.9922V36.9866ZM81.6537 43.9325C83.4815 43.9325 84.6625 42.8125 84.6625 41.1043C84.6625 39.3961 83.4815 38.2762 81.6537 38.2762H79.4266V43.9268H81.6537V43.9325Z" fill="#22B573"/>
<path d="M94.7846 44.1303L91.7871 41.1155L94.7677 38.1177L93.6767 37.0147L90.696 40.0125L87.6704 36.9751L86.5794 38.0781L89.5994 41.1155L86.5625 44.1699L87.6535 45.2729L90.696 42.2185L93.6936 45.2333L94.7846 44.1303Z" fill="#22B573"/>
<defs>
<clipPath id="clip0_504_6648">
<rect width="150" height="42" fill="white" transform="translate(10)"/>
</clipPath>
</defs>
</svg>
