<svg width="33" height="33" viewBox="0 0 33 33" fill="none" xmlns="http://www.w3.org/2000/svg">
<path d="M16.5 32C25.0604 32 32 25.0604 32 16.5C32 7.93959 25.0604 1 16.5 1C7.93959 1 1 7.93959 1 16.5C1 25.0604 7.93959 32 16.5 32Z" fill="#7D69FF" stroke="#131316" stroke-linecap="round" stroke-linejoin="round"/>
<path d="M28.5411 19.3377C30.1106 12.6877 25.9921 6.02436 19.342 4.45481C12.692 2.88525 6.02867 7.00381 4.45912 13.6539C2.88956 20.3039 7.00811 26.9672 13.6582 28.5368C20.3082 30.1063 26.9715 25.9878 28.5411 19.3377Z" fill="white"/>
<path d="M16.1528 5.70557H16.812V6.85244H16.1528V5.70557ZM8.62381 9.11191L9.08865 8.64706L9.90023 9.45864L9.43539 9.92349L8.62381 9.11191ZM5.70898 16.8467V16.1875H6.85586V16.8467H5.70898ZM9.11533 24.3757L8.65048 23.9108L9.46206 23.0993L9.92691 23.5641L9.11533 24.3757ZM16.8501 27.2905H16.1909V26.1436H16.8501V27.2905ZM24.3791 23.8842L23.9142 24.349L23.1027 23.5374L23.5675 23.0726L24.3791 23.8842ZM27.2939 16.1494V16.8086H26.147V16.1494H27.2939ZM23.8876 8.62039L24.3524 9.08524L23.5408 9.89682L23.076 9.43197L23.8876 8.62039Z" fill="#131316"/>
<path d="M20.718 16.0391H15.1855V16.9611H20.718V16.0391Z" fill="#131316"/>
<path d="M16.9924 11.0095H16.0703V17.7727H16.9924V11.0095Z" fill="#131316"/>
</svg>
