<svg width="37" height="35" viewBox="0 0 37 35" fill="none" xmlns="http://www.w3.org/2000/svg">
<path d="M14.5278 25.771C13.603 26.037 12.6237 26.1821 11.6082 26.1821C5.78714 26.1821 1.07227 21.4611 1.07227 15.6401V3.1759L11.6082 0.878906L22.1502 3.1759V15.6401C22.1502 15.8033 22.1441 15.9605 22.1381 16.1237" fill="white"/>
<path d="M14.5278 25.771C13.603 26.037 12.6237 26.1821 11.6082 26.1821C5.78714 26.1821 1.07227 21.4611 1.07227 15.6401V3.1759L11.6082 0.878906L22.1502 3.1759V15.6401C22.1502 15.8033 22.1441 15.9605 22.1381 16.1237" stroke="#131316" stroke-miterlimit="10"/>
<path d="M11.6084 0.878906V26.176" stroke="#131316" stroke-miterlimit="10"/>
<path d="M1.07227 13.5305H22.1441" stroke="#131316" stroke-miterlimit="10"/>
<g clip-path="url(#clip0_296_15789)">
<path d="M27.3014 16.4082H19.3457C18.6726 16.4082 18.127 15.8626 18.127 15.1895C18.127 14.5163 18.6726 13.9707 19.3457 13.9707H27.3014C27.9746 13.9707 28.5202 14.5163 28.5202 15.1895C28.5202 15.8626 27.9746 16.4082 27.3014 16.4082Z" fill="#7D69FF"/>
<path d="M25.6343 33.877H21.0119C15.4667 33.877 12.1088 27.7521 15.0911 23.0771L19.3452 16.4082H27.3009L31.5551 23.0771C34.5374 27.7521 31.1795 33.877 25.6343 33.877Z" fill="white"/>
<path d="M18.0186 9.33519C18.6038 8.74998 19.5526 8.74998 20.1377 9.33519L20.1415 9.33889C20.7252 9.92263 21.6711 9.9243 22.2569 9.3426L22.2718 9.32777C22.8576 8.74607 23.8036 8.74775 24.3873 9.33148L24.391 9.33519C24.9762 9.92039 25.925 9.92039 26.5101 9.33519H26.5102C27.0953 8.74998 28.0441 8.74998 28.6293 9.33519L27.3034 13.9707H19.3478L18.0186 9.33519Z" fill="white"/>
<path d="M21.0384 16.4082H19.3457C18.6726 16.4082 18.127 15.8626 18.127 15.1895C18.127 14.5163 18.6726 13.9707 19.3457 13.9707H27.3014C27.9746 13.9707 28.5202 14.5163 28.5202 15.1895C28.5202 15.8626 27.9746 16.4082 27.3014 16.4082H25.6087" stroke="black" stroke-width="1.11979" stroke-miterlimit="10" stroke-linecap="round" stroke-linejoin="round"/>
<path d="M27.301 16.4082L31.5551 23.0771C34.5373 27.7521 31.1795 33.877 25.6343 33.877H21.0119C15.4667 33.877 12.1088 27.7521 15.0911 23.0771L19.3452 16.4082" stroke="black" stroke-width="1.11979" stroke-miterlimit="10" stroke-linecap="round" stroke-linejoin="round"/>
<path d="M18.0186 9.33519C18.6038 8.74998 19.5526 8.74998 20.1377 9.33519L20.1415 9.33889C20.7252 9.92263 21.6711 9.9243 22.2569 9.3426L22.2718 9.32777C22.8576 8.74607 23.8036 8.74775 24.3873 9.33148L24.391 9.33519C24.9762 9.92039 25.925 9.92039 26.5101 9.33519H26.5102C27.0953 8.74998 28.0441 8.74998 28.6293 9.33519L27.3034 13.9707H19.3478L18.0186 9.33519Z" stroke="black" stroke-width="1.11979" stroke-miterlimit="10" stroke-linecap="round" stroke-linejoin="round"/>
<path d="M23.9906 26.4584V24.2223C23.9906 23.2923 23.6589 22.8965 22.8388 22.8965H19.3926V28.3383H20.3878V23.6979H22.332C22.8849 23.6979 22.9863 23.9453 22.9863 24.529V26.4584H23.9906ZM21.1986 28.3383H24.2671C25.336 28.3383 25.7414 27.7447 25.7414 26.4188V22.8965H24.737V26.4683C24.737 27.25 24.5988 27.5369 23.8893 27.5369H22.1938V24.7467H21.1986V28.3383Z" fill="#131316"/>
</g>
<defs>
<clipPath id="clip0_296_15789">
<rect width="26" height="26" fill="white" transform="translate(10.3232 8.38477)"/>
</clipPath>
</defs>
</svg>
