<svg width="41" height="32" viewBox="0 0 41 32" fill="none" xmlns="http://www.w3.org/2000/svg">
<path d="M30.6095 15.2522C28.0279 12.2235 24.4288 10.3457 20.4468 10.3457C16.4648 10.3457 12.8647 12.2235 10.2831 15.2522C10.1166 15.4495 10.1166 15.7642 10.2831 15.9615C12.8647 18.9902 16.4638 20.869 20.4468 20.869C24.4298 20.869 28.0269 18.9891 30.6095 15.9615C30.776 15.7642 30.776 15.4495 30.6095 15.2522ZM20.4468 18.6287C18.7193 18.6287 17.3189 17.1985 17.3189 15.4318C17.3189 13.6651 18.7193 12.235 20.4468 12.235C22.1743 12.235 23.5727 13.6672 23.5727 15.4318C23.5727 17.1965 22.1722 18.6287 20.4468 18.6287Z" fill="#85E577"/>
<path d="M20.4463 21.4402C16.4268 21.4402 12.6672 19.6278 9.8612 16.3364C9.51388 15.9262 9.51388 15.2864 9.86019 14.8782C12.6672 11.5868 16.4258 9.77441 20.4463 9.77441C24.4669 9.77441 28.2245 11.5868 31.0294 14.8761V14.8782C31.3818 15.2937 31.3818 15.92 31.0305 16.3354C28.2235 19.6278 24.4639 21.4402 20.4453 21.4402H20.4463ZM10.7214 15.6063C13.309 18.6308 16.7619 20.2977 20.4463 20.2977C24.1308 20.2977 27.5816 18.6318 30.1703 15.6063C27.5826 12.5818 24.1298 10.9169 20.4463 10.9169C16.7629 10.9169 13.309 12.5818 10.7214 15.6063ZM20.4474 19.1989C18.4142 19.1989 16.7609 17.508 16.7609 15.4308C16.7609 13.3535 18.4152 11.6626 20.4474 11.6626C22.4795 11.6626 24.1318 13.3535 24.1318 15.4308C24.1318 17.508 22.4785 19.1989 20.4474 19.1989ZM20.4474 12.8041C19.0307 12.8041 17.878 13.9819 17.878 15.4297C17.878 16.8776 19.0307 18.0554 20.4474 18.0554C21.8641 18.0554 23.0147 16.8776 23.0147 15.4297C23.0147 13.9819 21.863 12.8041 20.4474 12.8041Z" fill="#131316"/>
<path d="M14.1366 12.0553H13.0195V8.99966H8.9248V7.85718H13.0866C13.6654 7.85718 14.1366 8.3391 14.1366 8.93111V12.0553Z" fill="#131316"/>
<path d="M6.91752 11.131C5.47949 11.131 4.30957 9.93451 4.30957 8.46382C4.30957 6.99313 5.47949 5.79663 6.91752 5.79663C8.35554 5.79663 9.52546 6.99313 9.52546 8.46382C9.52546 9.93451 8.35554 11.131 6.91752 11.131ZM6.91752 6.93912C6.09492 6.93912 5.42668 7.62357 5.42668 8.46382C5.42668 9.30406 6.09593 9.98852 6.91752 9.98852C7.7391 9.98852 8.40835 9.30406 8.40835 8.46382C8.40835 7.62357 7.7391 6.93912 6.91752 6.93912Z" fill="#131316"/>
<path d="M10.7554 25.9884C9.31738 25.9884 8.14746 24.7919 8.14746 23.3212C8.14746 21.8505 9.31738 20.6541 10.7554 20.6541C12.1934 20.6541 13.3634 21.8505 13.3634 23.3212C13.3634 24.7919 12.1934 25.9884 10.7554 25.9884ZM10.7554 21.7965C9.93281 21.7965 9.26457 22.481 9.26457 23.3212C9.26457 24.1615 9.93382 24.8459 10.7554 24.8459C11.577 24.8459 12.2462 24.1615 12.2462 23.3212C12.2462 22.481 11.577 21.7965 10.7554 21.7965Z" fill="#131316"/>
<path d="M11.3163 16.751H10.1992V21.3033H11.3163V16.751Z" fill="#131316"/>
<path d="M9.90979 15.0361H6.91797V16.1786H9.90979V15.0361Z" fill="#131316"/>
<path d="M4.85209 18.2414C3.41406 18.2414 2.24414 17.0449 2.24414 15.5742C2.24414 14.1035 3.41406 12.907 4.85209 12.907C6.29011 12.907 7.46003 14.1035 7.46003 15.5742C7.46003 17.0449 6.29011 18.2414 4.85209 18.2414ZM4.85209 14.0495C4.02949 14.0495 3.36125 14.7339 3.36125 15.5742C3.36125 16.4144 4.0305 17.0989 4.85209 17.0989C5.67367 17.0989 6.34292 16.4144 6.34292 15.5742C6.34292 14.7339 5.67367 14.0495 4.85209 14.0495Z" fill="#131316"/>
<path d="M32.0829 23.3712H27.9212C27.3423 23.3712 26.8711 22.8893 26.8711 22.2972V18.9653H27.9882V22.2287H32.0829V23.3712Z" fill="#131316"/>
<path d="M30.6904 9.91064H29.5732V14.4629H30.6904V9.91064Z" fill="#131316"/>
<path d="M33.9303 14.9688H30.9385V16.1112H33.9303V14.9688Z" fill="#131316"/>
<path d="M33.9722 25.4181C32.5342 25.4181 31.3643 24.2216 31.3643 22.7509C31.3643 21.2802 32.5342 20.0837 33.9722 20.0837C35.4102 20.0837 36.5802 21.2802 36.5802 22.7509C36.5802 24.2216 35.4102 25.4181 33.9722 25.4181ZM33.9722 21.2262C33.1496 21.2262 32.4814 21.9107 32.4814 22.7509C32.4814 23.5912 33.1506 24.2756 33.9722 24.2756C34.7938 24.2756 35.463 23.5912 35.463 22.7509C35.463 21.9107 34.7938 21.2262 33.9722 21.2262Z" fill="#131316"/>
<path d="M30.1353 10.5607C28.6973 10.5607 27.5273 9.3642 27.5273 7.8935C27.5273 6.42281 28.6973 5.22632 30.1353 5.22632C31.5733 5.22632 32.7432 6.42281 32.7432 7.8935C32.7432 9.3642 31.5733 10.5607 30.1353 10.5607ZM30.1353 6.3688C29.3127 6.3688 28.6445 7.05326 28.6445 7.8935C28.6445 8.73375 29.3137 9.4182 30.1353 9.4182C30.9569 9.4182 31.6261 8.73375 31.6261 7.8935C31.6261 7.05326 30.9569 6.3688 30.1353 6.3688Z" fill="#131316"/>
<path d="M35.9956 18.2414C34.5576 18.2414 33.3877 17.0449 33.3877 15.5742C33.3877 14.1035 34.5576 12.907 35.9956 12.907C37.4337 12.907 38.6036 14.1035 38.6036 15.5742C38.6036 17.0449 37.4337 18.2414 35.9956 18.2414ZM35.9956 14.0495C35.173 14.0495 34.5048 14.7339 34.5048 15.5742C34.5048 16.4144 35.1741 17.0989 35.9956 17.0989C36.8172 17.0989 37.4865 16.4144 37.4865 15.5742C37.4865 14.7339 36.8172 14.0495 35.9956 14.0495Z" fill="#131316"/>
</svg>
