<svg width="23" height="37" viewBox="0 0 23 37" fill="none" xmlns="http://www.w3.org/2000/svg">
<path d="M10.753 26.938C10.753 26.938 8.64212 26.5643 8.57616 24.1994C8.47061 20.2559 15.1792 16.6732 16.0565 11.6278C16.769 7.49733 14.4932 6.75631 12.9826 6.37613C11.0498 5.89285 7.7582 6.16348 7.12494 9.22425C6.49168 12.285 7.73181 15.0365 3.97843 14.9849C0.488904 14.9398 0.732972 10.2424 1.41241 8.12237C2.13802 5.86707 4.65127 0.763648 12.0855 1.00851C18.207 1.20826 21.9867 4.90051 21.9999 10.2424C22.0197 16.6861 17.112 18.922 15.3573 23.4455C13.6884 27.7564 10.7464 26.938 10.7464 26.938H10.753Z" fill="white" stroke="#231F20" stroke-linecap="round" stroke-linejoin="round"/>
<path d="M14 33C14 31.3462 12.6603 30 11 30C9.33974 30 8 31.3397 8 33C8 34.6603 9.33974 36 11 36C12.6603 36 14 34.6603 14 33Z" fill="#22B573" stroke="#231F20" stroke-linecap="round" stroke-linejoin="round"/>
</svg>
