<svg width="33" height="26" viewBox="0 0 33 26" fill="none" xmlns="http://www.w3.org/2000/svg">
<g clip-path="url(#clip0_296_15961)">
<path d="M31.8483 26V25.0717C31.9872 25.0717 32.1009 24.9544 32.1009 24.811V1.18903C32.1009 1.04557 31.9872 0.92827 31.8483 0.92827H1.15171C1.01276 0.92827 0.899138 1.04557 0.899138 1.18903V24.811C0.899138 24.9544 1.01276 25.0717 1.15171 25.0717H20.9385V26H1.15171C0.516596 26 0 25.4667 0 24.811V1.18903C0 0.533333 0.516596 0 1.15171 0H31.8483C32.4834 0 33 0.533333 33 1.18903V24.811C33 25.4667 32.4834 26 31.8483 26Z" fill="#131316"/>
<path d="M31.8483 26H1.15171C0.516596 26 0 25.4666 0 24.8109V22.0253H33V24.8109C33 25.4666 32.4834 26 31.8483 26ZM0.899138 22.9535V24.8109C0.899138 24.9544 1.01276 25.0717 1.15171 25.0717H31.8483C31.9872 25.0717 32.1009 24.9544 32.1009 24.8109V22.9535H0.899138Z" fill="#131316"/>
<path d="M32.5516 2.31055H0.373047V3.23882H32.5516V2.31055Z" fill="#131316"/>
<path d="M24.6365 12.3924C22.5587 9.93162 19.6619 8.40588 16.4568 8.40588C13.2518 8.40588 10.3541 9.93162 8.27632 12.3924C8.14227 12.5527 8.14227 12.8084 8.27632 12.9688C10.3541 15.4295 13.251 16.9561 16.4568 16.9561C19.6627 16.9561 22.5579 15.4287 24.6365 12.9688C24.7706 12.8084 24.7706 12.5527 24.6365 12.3924ZM16.4568 15.1358C15.0664 15.1358 13.9393 13.9738 13.9393 12.5384C13.9393 11.1029 15.0664 9.9409 16.4568 9.9409C17.8472 9.9409 18.9728 11.1046 18.9728 12.5384C18.9728 13.9721 17.8456 15.1358 16.4568 15.1358Z" fill="#7D69FF"/>
<path d="M16.457 17.4203C13.2218 17.4203 10.1958 15.9477 7.9373 13.2734C7.65775 12.9401 7.65775 12.4203 7.93649 12.0886C10.1958 9.41435 13.221 7.94177 16.457 7.94177C19.6931 7.94177 22.7175 9.41435 24.9752 12.0869V12.0886C25.2588 12.4262 25.2588 12.935 24.976 13.2726C22.7167 15.9477 19.6907 17.4203 16.4562 17.4203H16.457ZM8.62964 12.6802C10.7124 15.1376 13.4915 16.492 16.457 16.492C19.4226 16.492 22.2001 15.1384 24.2836 12.6802C22.2009 10.2228 19.4217 8.87004 16.457 8.87004C13.4923 8.87004 10.7124 10.2228 8.62964 12.6802ZM16.4579 15.5992C14.8214 15.5992 13.4907 14.2253 13.4907 12.5376C13.4907 10.8498 14.8222 9.47595 16.4579 9.47595C18.0935 9.47595 19.4234 10.8498 19.4234 12.5376C19.4234 14.2253 18.0927 15.5992 16.4579 15.5992ZM16.4579 10.4034C15.3176 10.4034 14.3898 11.3603 14.3898 12.5367C14.3898 13.7131 15.3176 14.67 16.4579 14.67C17.5981 14.67 18.5242 13.7131 18.5242 12.5367C18.5242 11.3603 17.5973 10.4034 16.4579 10.4034Z" fill="#131316"/>
<path d="M11.3785 9.79488H10.4793V7.31218H7.18359V6.38391H10.5333C10.9992 6.38391 11.3785 6.77547 11.3785 7.25648V9.79488Z" fill="#131316"/>
<path d="M5.56783 9.04389C4.41039 9.04389 3.46875 8.07174 3.46875 6.87681C3.46875 5.68187 4.41039 4.70972 5.56783 4.70972C6.72526 4.70972 7.66691 5.68187 7.66691 6.87681C7.66691 8.07174 6.72526 9.04389 5.56783 9.04389ZM5.56783 5.63799C4.90574 5.63799 4.36789 6.1941 4.36789 6.87681C4.36789 7.55951 4.90655 8.11562 5.56783 8.11562C6.2291 8.11562 6.76777 7.55951 6.76777 6.87681C6.76777 6.1941 6.2291 5.63799 5.56783 5.63799Z" fill="#131316"/>
<path d="M8.6567 21.1157C7.49926 21.1157 6.55762 20.1435 6.55762 18.9486C6.55762 17.7536 7.49926 16.7815 8.6567 16.7815C9.81413 16.7815 10.7558 17.7536 10.7558 18.9486C10.7558 20.1435 9.81413 21.1157 8.6567 21.1157ZM8.6567 17.7098C7.9946 17.7098 7.45676 18.2659 7.45676 18.9486C7.45676 19.6313 7.99542 20.1874 8.6567 20.1874C9.31797 20.1874 9.85664 19.6313 9.85664 18.9486C9.85664 18.2659 9.31797 17.7098 8.6567 17.7098Z" fill="#131316"/>
<path d="M9.10812 13.6101H8.20898V17.3088H9.10812V13.6101Z" fill="#131316"/>
<path d="M7.97641 12.2169H5.56836V13.1452H7.97641V12.2169Z" fill="#131316"/>
<path d="M3.90572 14.8211C2.74828 14.8211 1.80664 13.849 1.80664 12.654C1.80664 11.4591 2.74828 10.4869 3.90572 10.4869C5.06315 10.4869 6.0048 11.4591 6.0048 12.654C6.0048 13.849 5.06315 14.8211 3.90572 14.8211ZM3.90572 11.4152C3.24363 11.4152 2.70578 11.9713 2.70578 12.654C2.70578 13.3367 3.24444 13.8928 3.90572 13.8928C4.56699 13.8928 5.10566 13.3367 5.10566 12.654C5.10566 11.9713 4.56699 11.4152 3.90572 11.4152Z" fill="#131316"/>
<path d="M25.8228 18.989H22.4731C22.0072 18.989 21.6279 18.5975 21.6279 18.1165V15.4093H22.5271V18.0608H25.8228V18.989Z" fill="#131316"/>
<path d="M24.7019 8.05237H23.8027V11.7511H24.7019V8.05237Z" fill="#131316"/>
<path d="M27.3094 12.1621H24.9014V13.0904H27.3094V12.1621Z" fill="#131316"/>
<path d="M27.3432 20.6524C26.1858 20.6524 25.2441 19.6803 25.2441 18.4853C25.2441 17.2904 26.1858 16.3182 27.3432 16.3182C28.5007 16.3182 29.4423 17.2904 29.4423 18.4853C29.4423 19.6803 28.5007 20.6524 27.3432 20.6524ZM27.3432 17.2465C26.6811 17.2465 26.1433 17.8026 26.1433 18.4853C26.1433 19.168 26.6819 19.7241 27.3432 19.7241C28.0045 19.7241 28.5432 19.168 28.5432 18.4853C28.5432 17.8026 28.0045 17.2465 27.3432 17.2465Z" fill="#131316"/>
<path d="M24.2553 8.58064C23.0979 8.58064 22.1562 7.60849 22.1562 6.41355C22.1562 5.21861 23.0979 4.24646 24.2553 4.24646C25.4128 4.24646 26.3544 5.21861 26.3544 6.41355C26.3544 7.60849 25.4128 8.58064 24.2553 8.58064ZM24.2553 5.17473C23.5932 5.17473 23.0554 5.73085 23.0554 6.41355C23.0554 7.09625 23.5941 7.65237 24.2553 7.65237C24.9166 7.65237 25.4553 7.09625 25.4553 6.41355C25.4553 5.73085 24.9166 5.17473 24.2553 5.17473Z" fill="#131316"/>
<path d="M28.9721 14.8211C27.8147 14.8211 26.873 13.849 26.873 12.654C26.873 11.4591 27.8147 10.4869 28.9721 10.4869C30.1296 10.4869 31.0712 11.4591 31.0712 12.654C31.0712 13.849 30.1296 14.8211 28.9721 14.8211ZM28.9721 11.4152C28.31 11.4152 27.7722 11.9713 27.7722 12.654C27.7722 13.3367 28.3109 13.8928 28.9721 13.8928C29.6334 13.8928 30.1721 13.3367 30.1721 12.654C30.1721 11.9713 29.6334 11.4152 28.9721 11.4152Z" fill="#131316"/>
</g>
<defs>
<clipPath id="clip0_296_15961">
<rect width="33" height="26" fill="white"/>
</clipPath>
</defs>
</svg>
