<svg width="37" height="32" viewBox="0 0 37 32" fill="none" xmlns="http://www.w3.org/2000/svg">
<path d="M27.9062 16.95V15.7222" stroke="#131316" stroke-miterlimit="10" stroke-linecap="round" stroke-linejoin="round"/>
<path d="M31.5244 16.9497V15.722" stroke="#131316" stroke-miterlimit="10" stroke-linecap="round" stroke-linejoin="round"/>
<path d="M33.056 31H3.91747C2.32511 31 1.03418 29.7091 1.03418 28.1167C1.03418 27.578 1.47088 27.1414 2.00949 27.1414H34.964C35.5026 27.1414 35.9393 27.578 35.9393 28.1167C35.9393 29.7091 34.6484 31 33.056 31Z" stroke="#131316" stroke-miterlimit="10" stroke-linecap="round" stroke-linejoin="round"/>
<path d="M23 8.46171H5.68741C4.62333 8.46171 3.76074 9.32423 3.76074 10.3883V27.1414" stroke="#131316" stroke-miterlimit="10" stroke-linecap="round" stroke-linejoin="round"/>
<path d="M33.2148 27.1416V21" stroke="#131316" stroke-miterlimit="10" stroke-linecap="round" stroke-linejoin="round"/>
<path d="M30.8252 27.1414V20.785" stroke="#131316" stroke-miterlimit="10" stroke-linecap="round" stroke-linejoin="round"/>
<path d="M23.1828 10.8495H6.64554C6.37045 10.8495 6.14746 11.0725 6.14746 11.3475V27.1412" stroke="#131316" stroke-miterlimit="10" stroke-linecap="round" stroke-linejoin="round"/>
<rect x="23" y="1.00012" width="13" height="3" rx="1.5" fill="#22B573"/>
<path d="M34.2012 1.00001H24.9218C23.9618 1.00001 23.1836 1.77825 23.1836 2.73824V19.0467C23.1836 20.0068 23.9618 20.785 24.9218 20.785H34.2012C35.1612 20.785 35.9394 20.0068 35.9394 19.0467V2.73824C35.9394 1.77825 35.1612 1.00001 34.2012 1.00001Z" stroke="#131316" stroke-miterlimit="10" stroke-linecap="round" stroke-linejoin="round"/>
<path d="M23.1836 3.65613H35.9395" stroke="#131316" stroke-miterlimit="10" stroke-linecap="round" stroke-linejoin="round"/>
<path d="M35.9395 16.9498H23.1836" stroke="#131316" stroke-miterlimit="10" stroke-linecap="round" stroke-linejoin="round"/>
<path d="M31.9395 9.78934C31.9395 11.0171 30.9441 12.0125 29.7163 12.0125C28.4885 12.0125 27.4932 11.0171 27.4932 9.78934C27.4932 8.56155 28.4885 7.56623 29.7163 7.56623C30.9441 7.56623 31.9395 8.56155 31.9395 9.78934Z" stroke="#131316" stroke-miterlimit="10" stroke-linecap="round" stroke-linejoin="round"/>
<path d="M16.2769 18.6385C16.2769 20.6479 14.6479 22.2769 12.6385 22.2769C10.629 22.2769 9 20.6479 9 18.6385C9 16.6291 10.629 15.0001 12.6385 15.0001C14.6479 15.0001 16.2769 16.6291 16.2769 18.6385Z" stroke="#131316" stroke-miterlimit="10" stroke-linecap="round" stroke-linejoin="round"/>
<path d="M25.6084 16.9501V15.0855C25.6084 13.3883 26.9842 12.0126 28.6812 12.0126H30.7487C32.4458 12.0126 33.8216 13.3883 33.8216 15.0855V16.9501" stroke="#131316" stroke-miterlimit="10" stroke-linecap="round" stroke-linejoin="round"/>
<path d="M18.9246 27.1412V27.139C18.9246 23.221 14.391 22.563 14.391 22.563C13 22.4999 12.5 22.4999 10.6811 22.563C10.6811 22.563 6.14746 23.221 6.14746 27.139V27.1412" stroke="#131316" stroke-miterlimit="10" stroke-linecap="round" stroke-linejoin="round"/>
</svg>
