<svg width="29" height="20" viewBox="0 0 29 20" fill="none" xmlns="http://www.w3.org/2000/svg">
<g clip-path="url(#clip0_363_6659)">
<path d="M17.2261 12.5C18.5594 11.6036 19.443 10.071 19.443 8.33337C19.443 5.57575 17.2261 3.33337 14.4997 3.33337C11.7733 3.33337 9.55632 5.57575 9.55632 8.33337C9.55632 10.071 10.4374 11.6036 11.7733 12.5C8.75321 13.6278 6.59082 16.5589 6.59082 20H7.90853C7.90853 16.325 10.8662 13.3334 14.4997 13.3334C18.1331 13.3334 21.0908 16.325 21.0908 20H22.4085C22.4085 16.5589 20.2461 13.6278 17.2261 12.5ZM10.874 8.33337C10.874 6.31182 12.501 4.66618 14.4997 4.66618C16.4983 4.66618 18.1253 6.31182 18.1253 8.33337C18.1253 10.3549 16.4983 12.0006 14.4997 12.0006C12.501 12.0006 10.874 10.3549 10.874 8.33337Z" fill="#131316"/>
<path d="M23.8173 9.16667C25.1506 8.27024 26.0342 6.73764 26.0342 5C26.0342 2.24238 23.8173 0 21.0909 0C19.7706 0 18.5724 0.528391 17.6836 1.38538C17.3561 1.70347 17.0702 2.06362 16.8389 2.4632C17.2495 2.63144 17.642 2.83912 18.0032 3.08885C18.2371 2.70505 18.536 2.36856 18.8869 2.09516C19.4977 1.61935 20.2592 1.33544 21.0883 1.33544C23.0869 1.33544 24.7139 2.98107 24.7139 5.00263C24.7139 6.67981 23.5912 8.09674 22.0681 8.53049C21.7562 8.61987 21.4288 8.66982 21.0883 8.66982C20.9713 8.66982 20.857 8.66193 20.7426 8.65142C20.7192 9.13249 20.6438 9.59779 20.5217 10.0421C20.7088 10.0263 20.896 10 21.0883 10C21.356 10 21.6185 10.021 21.8784 10.0526C25.1402 10.4495 27.6794 13.2624 27.6794 16.6667H28.9971C28.9971 13.2256 26.8347 10.2944 23.8147 9.16667H23.8173Z" fill="#131316"/>
<path d="M7.90885 10C8.10118 10 8.28831 10.0237 8.47544 10.0421C8.35069 9.59516 8.27792 9.12986 8.25453 8.65142C8.14017 8.66193 8.02581 8.66982 7.90885 8.66982C7.56838 8.66982 7.2409 8.61987 6.92902 8.53049C5.40599 8.09674 4.28321 6.68244 4.28321 5.00263C4.28321 2.98107 5.9102 1.33544 7.90885 1.33544C8.73795 1.33544 9.49946 1.62198 10.1102 2.09516C10.4611 2.36856 10.7626 2.70505 10.9939 3.08885C11.3578 2.83912 11.7476 2.63144 12.1583 2.4632C11.9244 2.06625 11.6411 1.70347 11.3136 1.38538C10.4273 0.528391 9.22656 0 7.90626 0C5.18247 0 2.9655 2.24238 2.9655 5C2.9655 6.73764 3.84657 8.27024 5.18247 9.16667C2.1624 10.2944 0 13.2256 0 16.6667H1.31771C1.31771 13.2624 3.85696 10.4495 7.11875 10.0526C7.37865 10.021 7.64115 10 7.90885 10Z" fill="#131316"/>
<path d="M14.4453 12.0373C16.4549 12.0373 18.0839 10.3896 18.0839 8.35697C18.0839 6.32438 16.4549 4.67664 14.4453 4.67664C12.4357 4.67664 10.8066 6.32438 10.8066 8.35697C10.8066 10.3896 12.4357 12.0373 14.4453 12.0373Z" fill="#7D69FF"/>
</g>
<defs>
<clipPath id="clip0_363_6659">
<rect width="29" height="20" fill="white"/>
</clipPath>
</defs>
</svg>
