<svg width="33" height="25" viewBox="0 0 33 25" fill="none" xmlns="http://www.w3.org/2000/svg">
<path d="M15.7204 10.3809C16.8469 10.3809 17.7601 9.47368 17.7601 8.35453C17.7601 7.23538 16.8469 6.32812 15.7204 6.32812C14.5939 6.32812 13.6807 7.23538 13.6807 8.35453C13.6807 9.47368 14.5939 10.3809 15.7204 10.3809Z" fill="white"/>
<path d="M20.634 8.14038L15.6105 14.3585L15.7037 14.2427L11.9332 10.381L6.10547 16.7497H13.6815H14.847H27.668L20.634 8.14038Z" fill="#22B573"/>
<path d="M17.1723 16.7497H6.10547L10.96 11.4463C12.7957 13.4611 14.8878 15.2443 17.1723 16.7497Z" fill="#22B573"/>
<path d="M15.7207 10.6705C14.4328 10.6705 13.3896 9.63411 13.3896 8.35458C13.3896 7.07506 14.4328 6.0387 15.7207 6.0387C17.0087 6.0387 18.0518 7.07506 18.0518 8.35458C18.0518 9.63411 17.0087 10.6705 15.7207 10.6705ZM15.7207 6.61767C14.7592 6.61767 13.9724 7.39928 13.9724 8.35458C13.9724 9.30989 14.7592 10.0915 15.7207 10.0915C16.6823 10.0915 17.4691 9.30989 17.4691 8.35458C17.4691 7.39928 16.6823 6.61767 15.7207 6.61767Z" fill="#131316"/>
<path d="M27.6673 18.7761H15.4291C15.2659 18.7761 15.1377 18.6487 15.1377 18.4866C15.1377 18.3245 15.2659 18.1971 15.4291 18.1971H27.6673C27.8305 18.1971 27.9587 18.3245 27.9587 18.4866C27.9587 18.6487 27.8305 18.7761 27.6673 18.7761Z" fill="#131316"/>
<path d="M7.85318 18.7761H6.10486C5.94169 18.7761 5.81348 18.6487 5.81348 18.4866C5.81348 18.3245 5.94169 18.1971 6.10486 18.1971H7.85318C8.01635 18.1971 8.14456 18.3245 8.14456 18.4866C8.14456 18.6487 8.01635 18.7761 7.85318 18.7761Z" fill="#131316"/>
<path d="M27.6674 17.0391H13.6808C13.5701 17.0391 13.4652 16.9755 13.4186 16.877C13.372 16.7786 13.3836 16.657 13.4536 16.5702L20.4119 7.96087C20.4701 7.89139 20.5517 7.85086 20.6391 7.85086C20.7091 7.83928 20.8081 7.89139 20.8664 7.95508L27.8947 16.5644C27.9646 16.6512 27.9821 16.7728 27.9296 16.8712C27.8772 16.9697 27.7781 17.0334 27.6674 17.0334V17.0391ZM14.2869 16.4602H27.0555L20.6391 8.60353L14.2869 16.4602Z" fill="#131316"/>
<path d="M14.8466 17.0391H6.10503C5.98847 17.0391 5.88358 16.9696 5.83695 16.8654C5.79033 16.7612 5.80781 16.6396 5.8894 16.5528L11.7171 10.1841C11.7696 10.1262 11.8453 10.0915 11.9269 10.0915C12.0085 10.0799 12.0843 10.1204 12.1425 10.1783L15.9131 14.0458C16.0238 14.1616 16.0238 14.3411 15.9073 14.4569C15.7907 14.5669 15.61 14.5669 15.4935 14.4511L11.9386 10.8094L6.76356 16.4659H14.8466C15.0098 16.4659 15.138 16.5933 15.138 16.7554C15.138 16.9175 15.0098 17.0449 14.8466 17.0449V17.0391Z" fill="#131316"/>
<path d="M12.5158 18.7761H9.60193C9.43876 18.7761 9.31055 18.6487 9.31055 18.4866C9.31055 18.3245 9.43876 18.1971 9.60193 18.1971H12.5158C12.679 18.1971 12.8072 18.3245 12.8072 18.4866C12.8072 18.6487 12.679 18.7761 12.5158 18.7761Z" fill="#131316"/>
<rect x="1" width="32" height="25" stroke="black"/>
<rect x="0.4" y="0.4" width="32.2" height="23.2" rx="1.6" stroke="black" stroke-width="0.8" stroke-linejoin="round"/>
</svg>
