<svg width="33" height="35" viewBox="0 0 33 35" fill="none" xmlns="http://www.w3.org/2000/svg">
<rect x="21.4473" y="20" width="11" height="14" rx="5" fill="#7D69FF"/>
<path d="M26.353 20.0994V9.98925C26.353 9.04919 25.5881 8.28426 24.648 8.28426H3.73233C2.79227 8.28426 2.02734 9.04919 2.02734 9.98925V20.3608C2.02734 21.3009 2.79227 22.0658 3.73233 22.0658H22.8748" stroke="black" stroke-miterlimit="10" stroke-linecap="round" stroke-linejoin="round"/>
<path d="M2.02734 11.658H26.3531" stroke="black" stroke-miterlimit="10" stroke-linecap="round" stroke-linejoin="round"/>
<path d="M2.02734 15.1749H26.3531" stroke="black" stroke-miterlimit="10" stroke-linecap="round" stroke-linejoin="round"/>
<path d="M2.02734 18.6919H26.3531" stroke="black" stroke-miterlimit="10" stroke-linecap="round" stroke-linejoin="round"/>
<path d="M5.97559 11.658V8.28405" stroke="black" stroke-miterlimit="10" stroke-linecap="round" stroke-linejoin="round"/>
<path d="M10.083 11.658V8.28405" stroke="black" stroke-miterlimit="10" stroke-linecap="round" stroke-linejoin="round"/>
<path d="M14.1904 11.658V8.28405" stroke="black" stroke-miterlimit="10" stroke-linecap="round" stroke-linejoin="round"/>
<path d="M18.2979 11.658V8.28405" stroke="black" stroke-miterlimit="10" stroke-linecap="round" stroke-linejoin="round"/>
<path d="M22.4053 11.658V8.28405" stroke="black" stroke-miterlimit="10" stroke-linecap="round" stroke-linejoin="round"/>
<path d="M5.97559 18.6919V15.318" stroke="black" stroke-miterlimit="10" stroke-linecap="round" stroke-linejoin="round"/>
<path d="M10.083 18.6919V15.318" stroke="black" stroke-miterlimit="10" stroke-linecap="round" stroke-linejoin="round"/>
<path d="M14.1904 18.6919V15.318" stroke="black" stroke-miterlimit="10" stroke-linecap="round" stroke-linejoin="round"/>
<path d="M18.2979 18.6919V15.318" stroke="black" stroke-miterlimit="10" stroke-linecap="round" stroke-linejoin="round"/>
<path d="M22.4053 18.6919V15.318" stroke="black" stroke-miterlimit="10" stroke-linecap="round" stroke-linejoin="round"/>
<path d="M8.0293 15.032V11.6581" stroke="black" stroke-miterlimit="10" stroke-linecap="round" stroke-linejoin="round"/>
<path d="M12.1367 15.032V11.6581" stroke="black" stroke-miterlimit="10" stroke-linecap="round" stroke-linejoin="round"/>
<path d="M16.2441 15.0321V11.6582" stroke="black" stroke-miterlimit="10" stroke-linecap="round" stroke-linejoin="round"/>
<path d="M20.3516 15.0321V11.6582" stroke="black" stroke-miterlimit="10" stroke-linecap="round" stroke-linejoin="round"/>
<path d="M8.0293 22.0659V18.692" stroke="black" stroke-miterlimit="10" stroke-linecap="round" stroke-linejoin="round"/>
<path d="M12.1367 22.0659V18.692" stroke="black" stroke-miterlimit="10" stroke-linecap="round" stroke-linejoin="round"/>
<path d="M16.2441 22.066V18.6921" stroke="black" stroke-miterlimit="10" stroke-linecap="round" stroke-linejoin="round"/>
<path d="M20.3516 22.066V18.6921" stroke="black" stroke-miterlimit="10" stroke-linecap="round" stroke-linejoin="round"/>
<path d="M31.0356 31.9814C31.7007 31.1141 32.096 30.0292 32.096 28.8522V25.213C32.096 23.7913 31.5198 22.5042 30.5881 21.5725C29.6564 20.6415 28.3693 20.0652 26.9482 20.0652C24.1049 20.0652 21.7998 22.3697 21.7998 25.213V28.8522C21.7998 31.6956 24.1049 34 26.9482 34C27.916 34 29.6675 33.7654 31.0356 31.9814Z" stroke="black" stroke-miterlimit="10" stroke-linecap="round" stroke-linejoin="round"/>
<path d="M26.9488 27.6658C26.3735 27.6658 25.9072 27.1994 25.9072 26.6242V23.7469C25.9072 23.1718 26.3735 22.7054 26.9488 22.7054C27.524 22.7054 27.9903 23.1718 27.9903 23.7469V26.6242C27.9903 27.1994 27.524 27.6658 26.9488 27.6658Z" fill="#22B573" stroke="black" stroke-miterlimit="10" stroke-linecap="round" stroke-linejoin="round"/>
<path d="M26.9482 22.7056V20.0651" stroke="black" stroke-miterlimit="10" stroke-linecap="round" stroke-linejoin="round"/>
<path d="M5.9751 5.35242V4.10368C5.9751 3.53231 5.5119 3.0691 4.94052 3.0691H2.03464C1.46327 3.0691 1 2.6059 1 2.03452C1 1.46315 1.46327 0.999941 2.03464 0.999941H16.0958" stroke="black" stroke-miterlimit="10" stroke-linecap="round" stroke-linejoin="round"/>
</svg>
