<svg width="24" height="33" viewBox="0 0 24 33" fill="none" xmlns="http://www.w3.org/2000/svg">
<g clip-path="url(#clip0_365_6664)">
<path d="M10.0873 1.06631V0.516235L10.0701 1.06631L2.45659 2.36532C1.48611 2.53034 1.14258 3.65164 1.14258 4.56137C1.14258 5.11567 1.33152 5.69536 1.55052 6.36391C1.86829 7.33288 2.25906 8.54303 2.25906 10.2186C2.25906 11.0522 2.16459 11.5007 1.89405 12.8336L1.73517 13.6037C1.7137 13.7137 1.70082 13.8237 1.70082 13.9337C1.70082 14.4161 2.10017 14.8138 2.594 14.8138C2.8903 14.8138 3.13506 14.7377 6.28697 13.7306C7.5881 13.316 9.37876 12.7405 11.8608 11.9535C12.0454 11.8985 12.1871 11.7673 12.243 11.598C12.6423 10.4048 12.8656 8.81384 12.8656 7.11708C12.8656 3.68549 10.8946 1.06631 10.0873 1.06631Z" fill="#7D69FF"/>
<path d="M14.1711 23.6488C13.995 23.6488 13.8233 23.6234 13.6558 23.5684L3.93814 20.1834C3.24678 19.9633 2.7959 19.3498 2.7959 18.6262C2.7959 17.9027 3.20814 17.3272 3.86944 17.0776L12.0197 13.8575C12.3847 13.7179 12.7755 13.7052 13.1448 13.8237H13.1577L22.8625 17.2045C23.5538 17.4245 24.0047 18.0339 24.0047 18.7489C24.0047 19.464 23.5925 20.0564 22.9312 20.3103L14.7809 23.5303C14.5833 23.6065 14.3858 23.6403 14.1883 23.6446H14.1711V23.6488ZM12.6295 14.8477C12.5565 14.8477 12.4921 14.8604 12.4277 14.8858L4.27738 18.1058C3.94673 18.2285 3.91238 18.512 3.91238 18.6305C3.91238 18.7489 3.95102 19.0324 4.29885 19.1467L14.0165 22.5317C14.0595 22.5444 14.1024 22.5529 14.1797 22.5529C14.2441 22.5529 14.3128 22.5402 14.3729 22.5148L22.5232 19.2948C22.8238 19.1805 22.8882 18.9394 22.8882 18.7574C22.8882 18.5755 22.7852 18.347 22.5017 18.2539L12.7927 14.8731C12.7369 14.8561 12.681 14.8477 12.6295 14.8477Z" fill="#131316"/>
<path d="M10.9114 25.8914L6.20075 24.4274L5.53516 20.4415L6.63875 20.2638L7.1927 23.5811L10.2974 24.5459L11.3709 22.1467L12.3929 22.591L10.9114 25.8914Z" fill="#131316"/>
<path d="M13.9556 33.0001C12.7232 33.0001 11.7227 32.0142 11.7227 30.7998C11.7227 29.5854 12.7232 28.5995 13.9556 28.5995C15.188 28.5995 16.1886 29.5854 16.1886 30.7998C16.1886 32.0142 15.188 33.0001 13.9556 33.0001ZM13.9556 29.6996C13.3416 29.6996 12.8391 30.1947 12.8391 30.7998C12.8391 31.4048 13.3416 31.8999 13.9556 31.8999C14.5697 31.8999 15.0721 31.4048 15.0721 30.7998C15.0721 30.1947 14.5697 29.6996 13.9556 29.6996Z" fill="#131316"/>
<path d="M8.37358 33.0001C7.14116 33.0001 6.14062 32.0142 6.14062 30.7998C6.14062 29.5854 7.14116 28.5995 8.37358 28.5995C9.606 28.5995 10.6065 29.5854 10.6065 30.7998C10.6065 32.0142 9.606 33.0001 8.37358 33.0001ZM8.37358 29.6996C7.75952 29.6996 7.2571 30.1947 7.2571 30.7998C7.2571 31.4048 7.75952 31.8999 8.37358 31.8999C8.98765 31.8999 9.49006 31.4048 9.49006 30.7998C9.49006 30.1947 8.98765 29.6996 8.37358 29.6996Z" fill="#131316"/>
<path d="M19.5337 33.0001C18.3013 33.0001 17.3008 32.0142 17.3008 30.7998C17.3008 29.5854 18.3013 28.5995 19.5337 28.5995C20.7662 28.5995 21.7667 29.5854 21.7667 30.7998C21.7667 32.0142 20.7662 33.0001 19.5337 33.0001ZM19.5337 29.6996C18.9197 29.6996 18.4173 30.1947 18.4173 30.7998C18.4173 31.4048 18.9197 31.8999 19.5337 31.8999C20.1478 31.8999 20.6502 31.4048 20.6502 30.7998C20.6502 30.1947 20.1478 29.6996 19.5337 29.6996Z" fill="#131316"/>
<path d="M14.5139 25.2778H13.3975V29.1495H14.5139V25.2778Z" fill="#131316"/>
<path d="M13.7246 26.4492L8.57617 28.7036L9.02957 29.709L14.178 27.4545L13.7246 26.4492Z" fill="#131316"/>
<path d="M14.178 26.4455L13.7246 27.4508L18.877 29.707L19.3304 28.7016L14.178 26.4455Z" fill="#131316"/>
<path d="M10.6062 21.732H9.48975V16.3752C9.48975 15.3978 8.82416 14.5261 7.87086 14.2595L1.34375 12.4189L1.65293 11.3611L8.18004 13.2017C9.60999 13.6037 10.6062 14.9069 10.6062 16.3752V21.732Z" fill="#131316"/>
<path d="M21.2089 17.0267H20.0924V13.6205C20.0924 12.6431 19.4268 11.7715 18.4735 11.5049L13.1016 9.97738L13.4107 8.91956L18.7827 10.4471C20.2127 10.849 21.2089 12.1523 21.2089 13.6205V17.0267Z" fill="#131316"/>
<path d="M2.56361 15.9478C1.45572 15.9478 0.558239 15.0592 0.558239 13.9676C0.558239 13.7814 0.575416 13.5994 0.614063 13.4217L0.772947 12.6474C1.03918 11.3611 1.11648 10.976 1.11648 10.2525C1.11648 8.74612 0.768653 7.6756 0.459474 6.73202C0.223296 6.00423 0 5.31876 0 4.59097C0 3.25811 0.588298 1.5952 2.24155 1.31594L9.86366 0.0169252C9.91948 0.00846262 9.94954 0 10.0612 0C11.7789 0 13.956 3.36812 13.956 7.15092C13.956 8.96192 13.7155 10.6756 13.2775 11.9788C13.1057 12.4866 12.6892 12.8843 12.1653 13.0409C9.69189 13.8237 7.90553 14.3992 6.6044 14.8138C3.11326 15.9309 3.04885 15.952 2.5679 15.952L2.56361 15.9478ZM10.0612 0.550071L10.044 1.10014L2.43049 2.39915C1.46001 2.56417 1.11648 3.68547 1.11648 4.5952C1.11648 5.14951 1.30542 5.7292 1.52442 6.39774C1.84219 7.36671 2.23296 8.57687 2.23296 10.2525C2.23296 11.086 2.13849 11.5346 1.86795 12.8674L1.70907 13.6375C1.6876 13.7475 1.67472 13.8575 1.67472 13.9676C1.67472 14.4499 2.07407 14.8477 2.5679 14.8477C2.8642 14.8477 3.10896 14.7715 6.26087 13.7645C7.562 13.3456 9.35266 12.7743 11.8347 11.9873C12.0193 11.9323 12.161 11.8011 12.2169 11.6319C12.6162 10.4386 12.8395 8.84767 12.8395 7.15092C12.8395 3.71932 10.8685 1.10014 10.0612 1.10014V0.550071Z" fill="#131316"/>
<path d="M14.1704 25.8491C13.9943 25.8491 13.8225 25.8237 13.6551 25.7687L10.8467 24.7912L11.2203 23.7546L14.0158 24.7278C14.0587 24.7405 14.1016 24.7532 14.1789 24.7489C14.2434 24.7489 14.3121 24.7362 14.3722 24.7108L22.5225 21.4908C22.8231 21.3766 22.8875 21.1354 22.8875 20.9534V18.6262H24.004V20.9534C24.004 21.6643 23.5917 22.2609 22.9304 22.5148L14.7801 25.7348C14.5826 25.811 14.3851 25.8448 14.1875 25.8491H14.1704Z" fill="#131316"/>
<path d="M6.29075 23.2045L3.93326 22.3836C3.2419 22.1636 2.79102 21.5501 2.79102 20.8265V18.6262H3.90749V20.8265C3.90749 20.945 3.94614 21.2285 4.29397 21.3427L6.66434 22.1678L6.29075 23.2045Z" fill="#131316"/>
</g>
<defs>
<clipPath id="clip0_365_6664">
<rect width="24" height="33" fill="white"/>
</clipPath>
</defs>
</svg>
