<svg width="127" height="22" viewBox="0 0 127 22" fill="none" xmlns="http://www.w3.org/2000/svg">
<path d="M124.665 4.74438V4.84843H124.145V6.07614H124.013V4.84843H123.493V4.74438H124.665Z" fill="white"/>
<path d="M125.239 4.74438L125.726 5.90967L126.234 4.74438H126.433V6.07614H126.301V4.92126H126.29L125.792 6.07614H125.659L125.173 4.92126V6.07614H125.029V4.74438H125.239Z" fill="white"/>
<path d="M18.339 0.686523V4.33844H11.7938V21.2871H7.18348V4.33844H0.616211V0.686523H18.339Z" fill="white"/>
<path d="M32.3031 6.13846C33.1213 6.461 33.7846 6.9604 34.3043 7.63668C34.7465 8.20892 35.0229 8.79156 35.1224 9.39501C35.2219 9.99846 35.2661 10.9765 35.2661 12.3394V21.2871H30.9432V12.0065C30.9432 11.1846 30.7995 10.5187 30.501 10.0193C30.1141 9.31178 29.3954 8.95803 28.323 8.95803C27.2505 8.95803 26.3661 9.31178 25.7912 10.0193C25.2162 10.7268 24.9288 11.7256 24.9288 13.0365V21.2871H20.6943V0.61377H24.9288V8.02164C25.5369 7.13728 26.2444 6.52342 27.0515 6.16967C27.8586 5.81593 28.6989 5.64946 29.5834 5.64946C30.5784 5.64946 31.485 5.81593 32.2921 6.13846" fill="white"/>
<path d="M46.6643 5.70157C46.6643 5.70157 46.8412 5.71197 47.0291 5.72237V9.80087C46.7638 9.76965 46.5205 9.75925 46.3215 9.74885C46.1115 9.74885 45.9456 9.73844 45.813 9.73844C44.1103 9.73844 42.9716 10.2587 42.3856 11.2991C42.0539 11.8817 41.8991 12.7869 41.8991 14.0146V21.2976H37.6426V6.05531H41.678V8.70841C42.3303 7.68879 42.9052 7.00211 43.3806 6.62755C44.1767 6.00329 45.2049 5.69116 46.4653 5.69116C46.5427 5.69116 46.609 5.69116 46.6643 5.69116" fill="white"/>
<path d="M52.1377 4.3385H49.3848V2.11197C49.3848 1.31084 50.0702 0.665771 50.9216 0.665771H53.6745V2.8923C53.6745 3.69343 52.989 4.3385 52.1377 4.3385Z" fill="#22B573"/>
<path d="M53.6745 6.05518H49.3848V21.2871H53.6745V6.05518Z" fill="white"/>
<path d="M67.6154 6.05518H72.1594L66.3218 21.2871H61.8552L56.0508 6.05518H60.8049L64.177 17.2918L67.6154 6.05518Z" fill="white"/>
<path d="M84.2554 6.36735C85.3831 6.84595 86.3118 7.59506 87.0525 8.62509C87.7159 9.53026 88.1471 10.5811 88.3461 11.7776C88.4567 12.4747 88.5009 13.4839 88.4898 14.8053H76.7041C76.7705 16.3347 77.3343 17.4063 78.3957 18.0202C79.037 18.4051 79.8219 18.5924 80.7285 18.5924C81.6904 18.5924 82.4754 18.3635 83.0724 17.8953C83.4041 17.6456 83.6915 17.2919 83.9458 16.8445H88.2687C88.1582 17.7497 87.6275 18.6653 86.6988 19.6016C85.2504 21.0791 83.2161 21.8282 80.6069 21.8282C78.451 21.8282 76.5494 21.2039 74.902 19.9554C73.2547 18.7069 72.4365 16.678 72.4365 13.8585C72.4365 11.2158 73.1773 9.19732 74.6698 7.79274C76.1513 6.38816 78.0861 5.68066 80.4521 5.68066C81.8562 5.68066 83.1277 5.91996 84.2554 6.39856M77.9203 9.84239C77.3233 10.425 76.9474 11.2054 76.7926 12.2042H84.0785C84.0011 11.1429 83.6252 10.3418 82.9508 9.80077C82.2764 9.24934 81.4361 8.97883 80.4411 8.97883C79.3576 8.97883 78.5173 9.27015 77.9203 9.8528" fill="white"/>
<path d="M90.8662 6.11768H98.3732C103.592 6.11768 107.163 9.14533 107.163 13.7024C107.163 18.2595 103.592 21.2872 98.3732 21.2872H90.8662V6.11768ZM98.2295 18.8942C101.823 18.8942 104.144 16.8341 104.144 13.692C104.144 10.5499 101.823 8.48986 98.2295 8.48986H93.8513V18.8838H98.2295V18.8942Z" fill="#22B573"/>
<path d="M124.046 19.2581L118.153 13.7126L124.013 8.19835L121.868 6.16951L116.008 11.6838L110.06 6.09668L107.915 8.12552L113.852 13.7126L107.882 19.331L110.027 21.3598L116.008 15.7311L121.901 21.287L124.046 19.2581Z" fill="#22B573"/>
</svg>
